<?xml version="1.0" encoding="UTF-8"?>
<svg xmlns="http://www.w3.org/2000/svg" xmlns:xlink="http://www.w3.org/1999/xlink" width="519pt" height="109pt" viewBox="0 0 519 109" version="1.1">
<g id="surface1">
<path style=" stroke:none;fill-rule:evenodd;fill:rgb(29.798889%,38.798523%,38.798523%);fill-opacity:1;" d="M 25.496094 5.324219 L 0.34375 5.324219 L 38.601563 63.324219 L 36.472656 104.941406 L 59.738281 104.941406 L 62.113281 63.078125 L 62.0625 62.992188 L 104.632813 4.914063 L 79.5625 4.914063 L 51.167969 45.242188 L 51.054688 45.058594 Z M 383.042969 29.328125 L 359.324219 29.328125 L 355.222656 104.167969 L 379.0625 104.167969 L 382.015625 51.28125 C 409.871094 37.683594 408.886719 57.507813 408.886719 57.507813 L 406.65625 104.167969 L 430.1875 104.167969 L 433.464844 55.050781 C 433.464844 55.050781 436.085938 29.65625 414.457031 27.527344 C 392.828125 25.394531 382.671875 37.847656 382.671875 37.847656 Z M 317.589844 0 L 341.765625 0 L 340.730469 18.515625 L 316.589844 18.515625 Z M 340.132813 29.246094 L 335.945313 104.367188 L 311.945313 104.367188 L 316.007813 29.246094 Z M 447.476563 1.96875 L 468.214844 1.96875 L 465.613281 54.980469 L 496.050781 25.394531 L 518.332031 25.394531 L 486.320313 57.019531 L 510.46875 103.710938 L 489.003906 103.710938 L 472.429688 68.363281 L 464.539063 76.914063 L 463.222656 103.710938 L 442.632813 103.710938 Z M 274.445313 0 L 298.621094 0 L 292.804688 104.367188 L 268.800781 104.367188 Z M 242.421875 28.507813 L 241.789063 37.734375 C 236.972656 31.164063 227.777344 24.316406 210.800781 26.871094 C 180.324219 31.457031 169.839844 64.390625 176.230469 83.394531 C 182.621094 102.402344 200.480469 109.445313 213.75 108.464844 C 226.609375 107.511719 233.007813 104.25 237.714844 97.042969 L 237.179688 104.859375 L 254.875 104.859375 L 260.609375 28.585938 Z M 216.464844 44.730469 C 228.769531 44.730469 238.140625 54.964844 237.390625 67.585938 C 236.640625 80.207031 226.054688 90.441406 213.75 90.441406 C 201.445313 90.441406 192.074219 80.207031 192.824219 67.585938 C 193.574219 54.964844 204.160156 44.730469 216.464844 44.730469 Z M 124.507813 22.609375 C 148.347656 22.609375 167.679688 41.945313 167.679688 65.78125 C 167.679688 68.785156 167.371094 71.71875 166.785156 74.546875 L 149.378906 74.546875 L 149.433594 74.386719 L 99.941406 74.386719 C 103.308594 84.835938 113.117188 92.398438 124.6875 92.398438 C 131.347656 92.398438 137.421875 89.894531 142.023438 85.773438 L 162.777344 85.773438 C 155.566406 99.550781 141.132813 108.957031 124.507813 108.957031 C 100.667969 108.957031 81.335938 89.621094 81.335938 65.78125 C 81.335938 41.945313 100.667969 22.609375 124.507813 22.609375 Z M 99.226563 61.113281 L 150.148438 61.113281 C 147.703125 49.292969 137.230469 40.402344 124.6875 40.402344 C 112.140625 40.402344 101.671875 49.292969 99.226563 61.113281 "/>
</g>
</svg>
